#!OML:ASF F:\VICON\USERDATA\INSTALL\rory3\rory3.ASF
:FULLY-SPECIFIED
:DEGREES
124
root 0.201416 17.785 -3.08517 -1.72051 -0.7844 1.37631
lowerback 10.4464 -1.68248 -4.14972
upperback 0.465712 -2.64094 1.63408
thorax -5.10724 -1.18792 4.43769
lowerneck -18.2026 -2.46463 -1.57834
upperneck 19.694 -3.00771 0.136715
head 9.22917 -1.51179 -0.0886709
rclavicle -9.93923e-015 4.37326e-015
rhumerus -34.8342 -20.1307 -76.4061
rradius 25.0944
rwrist 4.13441
rhand -19.3128 21.4744
rfingers 7.12502
rthumb 7.00318 -8.38976
lclavicle -9.93923e-015 4.37326e-015
lhumerus -19.2367 -5.53677 80.6619
lradius 29.5558
lwrist 8.59714
lhand -28.7865 28.4385
lfingers 7.12502
lthumb -2.1455 58.4074
rfemur -28.1903 5.51069 19.3201
rtibia 21.2941
rfoot -11.9169 -5.49885
rtoes -6.19056
lfemur 14.5565 -2.65416 -26.2608
ltibia 18.6619
lfoot -15.4243 -5.23821
ltoes -5.83182
125
root 0.172654 17.7895 -2.88572 -1.7154 -0.735254 1.03811
lowerback 10.294 -1.69469 -3.87485
upperback 0.478312 -2.61378 1.73447
thorax -5.01874 -1.1829 4.37659
lowerneck -18.2445 -2.50899 -1.66941
upperneck 19.7516 -3.05974 0.208894
head 9.26009 -1.53456 -0.0568145
rclavicle -2.56432e-014 7.55382e-015
rhumerus -34.8995 -20.6778 -76.0968
rradius 24.8125
rwrist 4.7602
rhand -18.9156 21.6792
rfingers 7.12502
rthumb 7.38663 -8.17181
lclavicle -2.56432e-014 7.55382e-015
lhumerus -19.2846 -5.82082 80.8397
lradius 29.565
lwrist 9.04912
lhand -29.2731 24.2195
lfingers 7.12502
lthumb -2.61546 54.1833
rfemur -27.89 5.77047 19.8805
rtibia 22.2293
rfoot -11.8507 -5.01738
rtoes -5.67659
lfemur 14.7816 -2.88438 -25.8146
ltibia 19.489
lfoot -15.0486 -5.84771
ltoes -6.74908
126
root 0.146322 17.7906 -2.68462 -1.75921 -0.724721 0.911911
lowerback 10.1455 -1.69553 -3.78396
upperback 0.509318 -2.5976 1.76262
thorax -4.90726 -1.18064 4.3446
lowerneck -18.2798 -2.57026 -1.72408
upperneck 19.9268 -3.13511 0.229176
head 9.32963 -1.57132 -0.0527503
rclavicle -3.69988e-014 6.75868e-015
rhumerus -34.9196 -21.2094 -75.8354
rradius 24.4307
rwrist 5.26961
rhand -18.9586 21.8216
rfingers 7.12502
rthumb 7.34515 -8.03094
lclavicle -3.69988e-014 6.75868e-015
lhumerus -19.3979 -6.10006 81.0331
lradius 29.569
lwrist 9.48787
lhand -30.1459 21.4216
lfingers 7.12502
lthumb -3.45834 51.3732
rfemur -27.6298 5.98991 20.1576
rtibia 22.8807
rfoot -11.0616 -4.5146
rtoes -6.7761
lfemur 14.9503 -2.93379 -25.5483
ltibia 20.3974
lfoot -14.0494 -6.57424
ltoes -6.29881
127
root 0.121536 17.804 -2.47722 -1.69119 -0.715556 0.783571
lowerback 10.0453 -1.71032 -3.63894
upperback 0.361791 -2.59807 1.77619
thorax -5.01187 -1.17848 4.27683
lowerneck -18.1635 -2.56769 -1.57154
upperneck 20.1528 -3.12004 -0.0270055
head 9.37985 -1.58238 -0.164397
rclavicle 1.94064e-014 -4.77083e-015
rhumerus -35.212 -21.6594 -75.4947
rradius 24.1422
rwrist 5.8014
rhand -19.1386 21.7947
rfingers 7.12502
rthumb 7.17138 -8.06374
lclavicle 1.94064e-014 -4.77083e-015
lhumerus -20.0421 -5.96763 81.2035
lradius 29.9884
lwrist 9.42936
lhand -29.9884 23.5011
lfingers 7.12502
lthumb -3.30624 53.4552
rfemur -27.5274 6.41246 20.2542
rtibia 23.2972
rfoot -9.81785 -4.33002
rtoes -8.34776
lfemur 14.9065 -3.21144 -25.3883
ltibia 21.4474
lfoot -12.7071 -6.92333
ltoes -6.17678
128
root 0.096604 17.8436 -2.27217 -1.51354 -0.407193 0.506541
lowerback 9.96469 -1.81386 -3.32973
upperback 0.13849 -2.69472 1.86912
thorax -5.20149 -1.22365 4.2161
lowerneck -18.1891 -2.5719 -1.54784
upperneck 20.5237 -3.09434 -0.201147
head 9.5108 -1.58859 -0.22875
rclavicle 3.62782e-015 -9.14409e-015
rhumerus -35.6364 -22.3249 -74.8231
rradius 23.7958
rwrist 6.92279
rhand -19.4228 21.7306
rfingers 7.12502
rthumb 6.89701 -8.13705
lclavicle 3.62782e-015 -9.14409e-015
lhumerus -20.7833 -5.71753 81.4651
lradius 30.4701
lwrist 9.12261
lhand -29.234 25.3551
lfingers 7.12502
lthumb -2.57769 55.3193
rfemur -27.4225 6.58611 20.4744
rtibia 23.656
rfoot -8.54065 -4.29646
rtoes -10.0341
lfemur 14.5845 -3.90217 -25.102
ltibia 22.7293
lfoot -11.6125 -7.38383
ltoes -9.12026
129
root 0.0780414 17.8759 -2.07635 -1.57693 -0.168134 0.133259
lowerback 10.0646 -1.98196 -2.98478
upperback 0.123406 -2.87001 2.07372
thorax -5.26289 -1.31461 4.26582
lowerneck -18.3859 -2.47718 -1.73979
upperneck 20.8662 -2.89641 -0.237246
head 9.66925 -1.51584 -0.18869
rclavicle 1.98785e-015 1.98785e-015
rhumerus -35.5872 -22.353 -74.5408
rradius 23.5078
rwrist 7.46615
rhand -19.8401 21.2975
rfingers 7.12502
rthumb 6.49416 -8.58298
lclavicle 1.98785e-015 1.98785e-015
lhumerus -21.0171 -4.98118 81.6961
lradius 30.4131
lwrist 8.74168
lhand -27.9834 23.7343
lfingers 7.12502
lthumb -1.36992 53.7096
rfemur -27.0139 6.47377 20.9245
rtibia 23.9841
rfoot -7.31198 -3.59738
rtoes -9.88868
lfemur 14.3542 -4.53757 -24.7597
ltibia 24.3255
lfoot -10.7259 -7.81532
ltoes -13.2759
130
root 0.0671033 17.8866 -1.88155 -1.76135 -0.323622 -0.225108
lowerback 10.2736 -2.0025 -2.51405
upperback 0.154609 -2.84141 2.15313
thorax -5.36852 -1.30915 4.08927
lowerneck -18.4536 -2.37818 -1.72867
upperneck 20.9904 -2.75208 -0.273909
head 9.72383 -1.45238 -0.185511
rclavicle 3.75206e-015 4.37326e-015
rhumerus -35.4282 -22.4756 -74.5276
rradius 23.2678
rwrist 7.71429
rhand -20.089 20.2861
rfingers 7.12502
rthumb 6.25385 -9.60161
lclavicle 3.75206e-015 4.37326e-015
lhumerus -21.2145 -4.54656 81.8446
lradius 30.1534
lwrist 8.61676
lhand -26.4644 17.584
lfingers 7.12502
lthumb 0.0971824 47.5637
rfemur -26.5205 6.58787 21.3899
rtibia 24.3185
rfoot -6.23012 -2.56841
rtoes -9.83947
lfemur 14.0068 -4.647 -24.3811
ltibia 26.2976
lfoot -9.42214 -8.50596
ltoes -15.2842
131
root 0.0551873 17.8921 -1.68261 -1.84147 -0.630489 -0.619953
lowerback 10.3727 -1.91521 -1.94232
upperback 0.0789545 -2.65575 2.18887
thorax -5.54387 -1.22697 3.78536
lowerneck -18.1871 -2.39653 -1.70329
upperneck 20.8666 -2.79035 -0.274843
head 9.63076 -1.46883 -0.190726
rclavicle -2.16675e-014 -1.55052e-014
rhumerus -35.5447 -23.1255 -74.1661
rradius 22.8313
rwrist 8.1758
rhand -19.6684 20.3566
rfingers 7.12502
rthumb 6.65998 -9.51865
lclavicle -2.16675e-014 -1.55052e-014
lhumerus -21.6587 -4.54143 82.0359
lradius 30.0092
lwrist 8.76912
lhand -29.2834 20.8609
lfingers 7.12502
lthumb -2.62542 50.8245
rfemur -26.1046 6.73562 21.9506
rtibia 24.769
rfoot -5.38996 -2.13669
rtoes -10.8332
lfemur 13.3122 -4.42081 -23.8625
ltibia 28.6036
lfoot -7.59827 -9.67384
ltoes -15.1917
132
root 0.0416588 17.9022 -1.48686 -1.91972 -0.933655 -0.896799
lowerback 10.46 -1.80144 -1.56549
upperback 0.029391 -2.45658 2.22932
thorax -5.67443 -1.1352 3.59212
lowerneck -18.097 -2.41012 -1.66468
upperneck 20.8591 -2.80766 -0.335834
head 9.61001 -1.48114 -0.219363
rclavicle -1.29955e-014 3.18055e-015
rhumerus -35.7349 -23.4595 -73.9274
rradius 22.6357
rwrist 7.94181
rhand -18.7838 22.0626
rfingers 7.12502
rthumb 7.51381 -7.7839
lclavicle -1.29955e-014 3.18055e-015
lhumerus -22.0655 -4.41337 82.2528
lradius 29.9557
lwrist 8.64942
lhand -29.9006 23.8834
lfingers 7.12502
lthumb -3.22149 53.8388
rfemur -25.6754 6.48215 22.5203
rtibia 25.323
rfoot -5.09116 -2.0357
rtoes -10.6678
lfemur 12.432 -4.08218 -23.415
ltibia 31.1612
lfoot -5.16488 -11.2263
ltoes -13.1409
133
root 0.0235298 17.918 -1.29203 -1.9588 -1.21328 -1.06655
lowerback 10.4459 -1.71662 -1.39836
upperback 0.0255206 -2.31865 2.30898
thorax -5.68367 -1.07066 3.5609
lowerneck -18.3147 -2.39065 -1.69612
upperneck 21.0895 -2.73695 -0.461136
head 9.72984 -1.46539 -0.253112
rclavicle 6.73383e-015 -1.03368e-014
rhumerus -35.7263 -23.2177 -74.0084
rradius 22.6919
rwrist 7.30719
rhand -18.3315 23.5775
rfingers 7.12502
rthumb 7.95043 -6.253
lclavicle 6.73383e-015 -1.03368e-014
lhumerus -22.5597 -3.99361 82.49
lradius 30.0138
lwrist 8.35544
lhand -30.0865 24.6075
lfingers 7.12502
lthumb -3.40095 54.5602
rfemur -25.3226 6.01118 23.0273
rtibia 25.928
rfoot -5.2695 -1.53344
rtoes -9.0597
lfemur 11.403 -3.48982 -22.9354
ltibia 33.7595
lfoot -2.67789 -12.7903
ltoes -16.3564
134
root 0.00435362 17.9459 -1.10182 -1.94332 -1.26637 -1.32222
lowerback 10.4124 -1.75682 -1.15894
upperback 0.0460346 -2.33742 2.41109
thorax -5.64723 -1.0861 3.53373
lowerneck -18.3486 -2.33696 -1.7088
upperneck 20.955 -2.64008 -0.52991
head 9.68725 -1.42925 -0.260942
rclavicle -1.14053e-014 -5.56597e-015
rhumerus -35.6052 -23.576 -73.7633
rradius 22.4231
rwrist 7.73686
rhand -18.2808 23.6158
rfingers 7.12502
rthumb 7.99932 -6.21287
lclavicle -1.14053e-014 -5.56597e-015
lhumerus -23.1452 -3.53749 82.6807
lradius 30.2764
lwrist 8.2523
lhand -30.6409 24.3581
lfingers 7.12502
lthumb -3.93633 54.3015
rfemur -24.9549 5.51175 23.5605
rtibia 26.4333
rfoot -5.6723 -0.504909
rtoes -7.1105
lfemur 10.1145 -3.02384 -22.262
ltibia 36.3668
lfoot 0.407622 -13.1619
ltoes -11.804
135
root -0.0179835 17.9756 -0.907791 -2.05286 -1.33323 -1.20739
lowerback 10.5032 -1.75336 -1.38114
upperback 0.0887118 -2.35966 2.42377
thorax -5.6424 -1.09131 3.67874
lowerneck -18.2317 -2.33908 -1.73487
upperneck 20.6756 -2.63014 -0.559561
head 9.56721 -1.42976 -0.261528
rclavicle -4.5969e-015 8.74653e-015
rhumerus -35.5148 -24.1583 -73.3979
rradius 22.0815
rwrist 8.77001
rhand -18.582 22.4862
rfingers 7.12502
rthumb 7.70862 -7.35326
lclavicle -4.5969e-015 8.74653e-015
lhumerus -23.5616 -3.15456 82.8358
lradius 30.2875
lwrist 8.27164
lhand -29.9993 24.2136
lfingers 7.12502
lthumb -3.31675 54.1675
rfemur -24.3983 5.13374 23.6706
rtibia 26.9073
rfoot -6.04243 0.655809
rtoes -4.84028
lfemur 8.84189 -2.28631 -22.0113
ltibia 38.9241
lfoot 2.24494 -13.7219
ltoes -10.8895
136
root -0.0398836 18.0057 -0.708134 -2.24559 -1.35782 -1.3844
lowerback 10.6325 -1.74222 -1.24629
upperback 0.0673627 -2.32368 2.50005
thorax -5.74241 -1.07411 3.6843
lowerneck -17.9748 -2.40469 -1.92868
upperneck 20.5967 -2.69013 -0.484344
head 9.49707 -1.46468 -0.207564
rclavicle 5.49143e-015 1.19271e-014
rhumerus -35.5477 -23.2346 -73.8207
rradius 22.5188
rwrist 7.79695
rhand -18.8132 21.537
rfingers 7.12502
rthumb 7.48544 -8.31052
lclavicle 5.49143e-015 1.19271e-014
lhumerus -23.9156 -2.8859 83.0439
lradius 29.9611
lwrist 8.12182
lhand -29.623 24.8164
lfingers 7.12502
lthumb -2.95339 54.7757
rfemur -23.6765 5.05314 24.0482
rtibia 27.3496
rfoot -6.36196 1.14808
rtoes -3.05052
lfemur 7.68497 -1.3377 -21.4493
ltibia 41.4425
lfoot 3.45934 -14.9092
ltoes -13.9867
